<?xml version="1.0" encoding="UTF-8" standalone="no"?>
<svg width="34px" height="22px" viewBox="0 0 34 22" version="1.1" xmlns="http://www.w3.org/2000/svg" xmlns:xlink="http://www.w3.org/1999/xlink" xmlns:sketch="http://www.bohemiancoding.com/sketch/ns">
    <!-- Generator: Sketch 3.5.1 (25234) - http://www.bohemiancoding.com/sketch -->
    <title>‘Logo’</title>
    <desc>Created with Sketch.</desc>
    <defs></defs>
    <g id="1.0" stroke="none" stroke-width="1" fill="none" fill-rule="evenodd" sketch:type="MSPage">
        <g id="1.0-Overview-[completed]" sketch:type="MSArtboardGroup" transform="translate(-10.000000, -14.000000)" fill="#000000">
            <g id="Group-2" sketch:type="MSLayerGroup">
                <path d="M16.1813762,27 C17.1218889,32.1202361 21.6078607,36 27,36 C32.3921393,36 36.8781111,32.1202361 37.8186238,27 L44,27 L44,23 L37.8186238,23 C36.8781111,17.8797639 32.3921393,14 27,14 C21.6078607,14 17.1218889,17.8797639 16.1813762,23 L10,23 L10,27 L16.1813762,27 Z M27,32 C30.8659932,32 34,28.8659932 34,25 C34,21.1340068 30.8659932,18 27,18 C23.1340068,18 20,21.1340068 20,25 C20,28.8659932 23.1340068,32 27,32 Z M27,28 C28.6568542,28 30,26.6568542 30,25 C30,23.3431458 28.6568542,22 27,22 C25.3431458,22 24,23.3431458 24,25 C24,26.6568542 25.3431458,28 27,28 Z" id="‘Logo’" sketch:type="MSShapeGroup"></path>
            </g>
        </g>
    </g>
</svg>